HIERARCHY
ROOT Hips
{
	OFFSET 0.00000 0.00000 0.00000
	CHANNELS 6 Xposition Yposition Zposition Zrotation Yrotation Xrotation 
	JOINT LHipJoint
	{
		OFFSET 0 0 0
		CHANNELS 3 Zrotation Yrotation Xrotation
		JOINT LeftHip
		{
			OFFSET 1.57358 -1.76629 0.73362
			CHANNELS 3 Zrotation Yrotation Xrotation
			JOINT LeftKnee
			{
				OFFSET 2.40600 -6.61045 0.00000
				CHANNELS 3 Zrotation Yrotation Xrotation
				JOINT LeftAnkle
				{
					OFFSET 2.66168 -7.31291 0.00000
					CHANNELS 3 Zrotation Yrotation Xrotation
					JOINT LeftToe
					{
						OFFSET 0.20870 -0.57341 2.12506
						CHANNELS 3 Zrotation Yrotation Xrotation
						End Site
						{
							OFFSET 0.00000 -0.00000 1.10557
						}
					}
				}
			}
		}
	}
	JOINT RHipJoint
	{
		OFFSET 0 0 0
		CHANNELS 3 Zrotation Yrotation Xrotation
		JOINT RightHip
		{
			OFFSET -1.49299 -1.76629 0.73362
			CHANNELS 3 Zrotation Yrotation Xrotation
			JOINT RightKnee
			{
				OFFSET -2.43663 -6.69460 0.00000
				CHANNELS 3 Zrotation Yrotation Xrotation
				JOINT RightAnkle
				{
					OFFSET -2.62959 -7.22474 0.00000
					CHANNELS 3 Zrotation Yrotation Xrotation
					JOINT RightToe
					{
						OFFSET -0.25784 -0.70841 2.21862
						CHANNELS 3 Zrotation Yrotation Xrotation
						End Site
						{
							OFFSET -0.00000 -0.00000 1.16452
						}
					}
				}
			}
		}
	}
	JOINT lowerback
	{
		OFFSET 0 0 0
		CHANNELS 3 Zrotation Yrotation Xrotation
		JOINT Chest
		{
			OFFSET -0.00034 2.12399 -0.25450
			CHANNELS 3 Zrotation Yrotation Xrotation
			JOINT Chest2
			{
				OFFSET 0.05594 2.14379 -0.03318
				CHANNELS 3 Zrotation Yrotation Xrotation
				JOINT lowerneck
				{
					OFFSET 0 0 0
					CHANNELS 3 Zrotation Yrotation Xrotation
					JOINT Neck
					{
						OFFSET -0.09835 1.62725 0.24211
						CHANNELS 3 Zrotation Yrotation Xrotation
						JOINT Head
						{
							OFFSET 0.10849 1.66041 -0.22648
							CHANNELS 3 Zrotation Yrotation Xrotation
							End Site
							{
								OFFSET 0.04385 1.68267 -0.10541
							}
						}
					}
				}
				JOINT LeftCollar
				{
					OFFSET 0 0 0
					CHANNELS 3 Zrotation Yrotation Xrotation
					JOINT LeftShoulder
					{
						OFFSET 3.29108 0.79398 -0.68179
CHANNELS 3 Zrotation Xrotation Yrotation
						JOINT LeftElbow
						{
OFFSET 0 -5.153100 -0.000000
CHANNELS 3 Zrotation Xrotation Yrotation
							JOINT LeftWrist
							{
OFFSET 0 -3.751380 -0.000000
CHANNELS 3 Zrotation Xrotation Yrotation
								JOINT lhand
								{
									OFFSET 0 0 0
CHANNELS 3 Zrotation Xrotation Yrotation
									JOINT LFingers
									{
OFFSET 0 -0.529170 0.000000
CHANNELS 3 Zrotation Xrotation Yrotation
										End Site
										{
OFFSET 0 -0.426630 0.000000
										}
									}
								}
								JOINT LThumb
								{
OFFSET 0 0.000000 0.000000
CHANNELS 3 Zrotation Xrotation Yrotation
									End Site
									{
OFFSET 0 -0.433150 0.433150
									}
								}
							}
						}
					}
				}
				JOINT RightCollar
				{
					OFFSET 0 0 0
					CHANNELS 3 Zrotation Yrotation Xrotation
					JOINT RightShoulder
					{
						OFFSET -3.07414 1.06285 -0.44338
CHANNELS 3 Zrotation Xrotation Yrotation
						JOINT RightElbow
						{
OFFSET 0 -5.296130 0.000000
CHANNELS 3 Zrotation Xrotation Yrotation
							JOINT RightWrist
							{
OFFSET 0 -3.761440 -0.000000
CHANNELS 3 Zrotation Xrotation Yrotation
								JOINT rhand
								{
									OFFSET 0 0 0
CHANNELS 3 Zrotation Xrotation Yrotation
									JOINT RFingers
									{
OFFSET 0 -0.747320 0.000000
CHANNELS 3 Zrotation Xrotation Yrotation
										End Site
										{
OFFSET 0 -0.602510 0.000000
										}
									}
								}
								JOINT RThumb
								{
OFFSET 0 0.000000 0.000000
CHANNELS 3 Zrotation Xrotation Yrotation
									End Site
									{
OFFSET 0 -0.611710 0.611710
									}
								}
							}
						}
					}
				}
			}
		}
	}
}
MOTION
Frames: 6
Frame Time: 0.008333333333333333
1.034971 15.903592 -16.686831 -2.398533 -1.519139 29.226392 0.000000 0.000000 0.000000 -7.020644 -18.400646 -65.793663 11.211188 18.036439 63.465005 1.703531 -3.584257 -23.791889 0.000529 -0.137465 -0.377598 0.000000 0.000000 0.000000 13.990263 20.815747 -62.663876 -10.850523 -17.860825 62.294641 -1.426548 -4.070426 -24.349314 -0.026059 -1.041594 2.863227 1.095106 0.851741 24.189207 2.969017 1.705403 3.086935 2.126050 0.811861 -10.148527 -8.833813 -4.450410 -22.447782 6.252029 -4.499689 14.458207 2.939571 -1.960870 8.517542 0.000000 0.000000 0.000000 3.266394 -2.915572 -25.076657 65.107678 -57.523293 38.621956 20.850979 -6.334632 -22.587848 0.000000 0.000000 0.000000 -7.125000 0.000000 0.000000 -8.535984 53.775319 1.852270 0.000000 0.000000 0.000000 -6.278709 -2.444224 27.350147 -74.855975 -59.115400 -46.923889 -29.755989 -20.980864 -24.615245 0.000000 0.000000 0.000000 7.125000 0.000000 0.000000 -0.174998 2.157394 -0.168308
1.035525 15.858182 -16.682179 -2.567037 -1.692754 29.761986 0.000000 0.000000 0.000000 -6.615905 -18.358643 -66.808586 11.375511 18.113959 63.995243 1.715666 -3.440625 -23.906335 0.000005 -0.043310 -0.119052 0.000000 0.000000 0.000000 13.799802 21.195702 -63.536278 -10.994875 -17.932586 62.764865 -1.436168 -4.109587 -24.444072 -0.028895 -1.095918 3.012743 1.113228 0.944944 24.036441 2.965524 1.826310 3.051717 2.073438 0.867301 -10.110113 -8.822154 -4.464852 -22.606382 6.282365 -4.508828 14.296159 2.944464 -1.958023 8.490044 0.000000 0.000000 0.000000 3.272885 -3.325953 -25.162870 64.526450 -57.400106 38.131826 21.022050 -6.261440 -22.494268 0.000000 0.000000 0.000000 -7.125000 0.000000 0.000000 -8.326057 53.711467 1.792994 0.000000 0.000000 0.000000 -6.457766 -2.567671 27.379510 -74.941314 -59.125507 -46.997102 -29.873261 -21.239895 -24.585608 0.000000 0.000000 0.000000 7.125000 0.000000 0.000000 -0.250514 2.162004 -0.240964
1.036542 15.820903 -16.665099 -2.657862 -1.800524 30.163377 0.000000 0.000000 0.000000 -6.368441 -18.360406 -67.514443 11.513984 18.177265 64.439539 1.738643 -3.283309 -24.102625 0.000208 -0.088384 -0.242953 0.000000 0.000000 0.000000 13.641536 21.443436 -64.180930 -11.119725 -17.992910 63.169442 -1.434880 -4.287712 -24.528186 -0.020558 -0.917996 2.523239 1.175246 0.995440 23.908202 2.901540 1.895716 3.060528 1.945063 0.895769 -10.029456 -8.767524 -4.519754 -22.703104 6.410875 -4.611446 14.115865 2.963307 -1.987371 8.455273 0.000000 0.000000 0.000000 3.402209 -3.721922 -25.332184 63.866683 -57.254176 37.576643 21.316417 -6.027601 -22.643180 0.000000 0.000000 0.000000 -7.125000 0.000000 0.000000 -8.080694 53.921245 1.780591 0.000000 0.000000 0.000000 -6.448277 -2.960319 27.379917 -74.345056 -59.052712 -46.485637 -30.184302 -21.479225 -24.614346 0.000000 0.000000 0.000000 7.125000 0.000000 0.000000 -0.433790 2.056607 -0.418140
1.034617 15.793415 -16.643439 -2.636256 -1.811052 30.350927 0.000000 0.000000 0.000000 -6.278195 -18.440385 -67.872546 11.635966 18.232307 64.830039 1.770593 -3.218766 -24.343961 0.000337 -0.116890 -0.321212 0.000000 0.000000 0.000000 13.508475 21.548138 -64.546144 -11.238768 -18.049697 63.554287 -1.439810 -4.507682 -24.683780 -0.013822 -0.751169 2.064411 1.173156 1.005989 24.026529 2.851331 1.904961 3.088550 1.886493 0.898511 -10.059330 -8.718217 -4.560099 -22.770713 6.502269 -4.689084 13.975779 2.974257 -2.009944 8.426421 0.000000 0.000000 0.000000 3.503871 -4.113981 -25.511661 63.135734 -57.087510 36.962564 21.797375 -5.780917 -22.849535 0.000000 0.000000 0.000000 -7.125000 0.000000 0.000000 -7.662665 54.227780 1.742946 0.000000 0.000000 0.000000 -6.447090 -3.389860 27.395773 -73.569506 -58.953074 -45.820976 -30.364968 -21.630509 -24.664715 0.000000 0.000000 0.000000 7.125000 0.000000 0.000000 -0.534717 1.958394 -0.516168
1.030049 15.774849 -16.618187 -2.521069 -1.734610 30.361794 0.000000 0.000000 0.000000 -6.316434 -18.587287 -67.935893 11.741949 18.279419 65.168464 1.809374 -3.227512 -24.618773 0.000400 -0.130379 -0.358124 0.000000 0.000000 0.000000 13.398650 21.531822 -64.676167 -11.351486 -18.102775 63.917832 -1.450402 -4.758586 -24.900551 -0.008820 -0.605746 1.664568 1.117462 0.981594 24.355839 2.816928 1.862747 3.126290 1.891545 0.879351 -10.191429 -8.682790 -4.586180 -22.805355 6.563503 -4.741058 13.873455 2.981210 -2.025189 8.402377 0.000000 0.000000 0.000000 3.572823 -4.490137 -25.684383 62.338044 -56.900968 36.293352 22.360375 -5.542309 -23.037873 0.000000 0.000000 0.000000 -7.125000 0.000000 0.000000 -7.152439 54.532317 1.681392 0.000000 0.000000 0.000000 -6.458555 -3.836134 27.425390 -72.642955 -58.830013 -45.027417 -30.420479 -21.696733 -24.735032 0.000000 0.000000 0.000000 7.125000 0.000000 0.000000 -0.556755 1.868062 -0.538286
1.022593 15.767393 -16.595007 -2.389373 -1.568278 30.357660 0.000000 0.000000 0.000000 -6.348019 -18.768462 -67.881670 11.817049 18.312157 65.407523 1.841502 -3.200603 -24.849834 0.000400 -0.126042 -0.346262 0.000000 0.000000 0.000000 13.320839 21.469872 -64.732560 -11.444683 -18.145748 64.217350 -1.468025 -4.966805 -25.148895 -0.009091 -0.614490 1.688494 1.049275 0.930081 24.793492 2.838956 1.794357 3.088266 1.976067 0.850274 -10.467902 -8.766566 -4.583197 -22.726256 6.628504 -4.728316 13.830889 3.019234 -2.018276 8.377705 0.000000 0.000000 0.000000 3.516295 -4.707167 -25.667913 61.435965 -56.678583 35.538897 22.032525 -5.537023 -22.409555 0.000000 0.000000 0.000000 -7.125000 0.000000 0.000000 -7.262580 53.816632 1.579791 0.000000 0.000000 0.000000 -6.543212 -4.112675 27.468566 -71.667945 -58.689438 -44.193999 -30.248319 -21.602452 -24.832906 0.000000 0.000000 0.000000 7.125000 0.000000 0.000000 -0.437056 1.802587 -0.423060
